<svg viewBox="0 0 64 64" xmlns="http://www.w3.org/2000/svg"><g id="hospital-information-live-covid19-coronavirus"><rect height="6" style="fill:#808285" width="12" x="26" y="51"></rect><path d="M5,9H59a2,2,0,0,1,2,2V45a0,0,0,0,1,0,0H3a0,0,0,0,1,0,0V11A2,2,0,0,1,5,9Z" style="fill:#414042"></path><rect height="30" style="fill:#ffc477" width="52" x="6" y="12"></rect><path d="M54,14A28,28,0,0,1,26,42H58V14Z" style="fill:#ffb655"></path><rect height="3" style="fill:#6d6e71" width="12" x="26" y="51"></rect><path d="M3,49a2.006,2.006,0,0,0,2,2H59a2.006,2.006,0,0,0,2-2V45H3Zm30-1h0Z" style="fill:#004fac"></path><path d="M29,42l1-10a1,1,0,0,1-1-1V29H27a5.875,5.875,0,0,0-1.93.32L28,42Z" style="fill:#d1e7f8"></path><path d="M25.07,29.32A6,6,0,0,0,21,35v7h7Z" style="fill:#004fac"></path><path d="M32,32l1,10h1l2.93-12.68A5.875,5.875,0,0,0,35,29H33v2A1,1,0,0,1,32,32Z" style="fill:#d1e7f8"></path><path d="M41,42V35a6,6,0,0,0-4.07-5.68L34,42Z" style="fill:#004fac"></path><path d="M21,57a2,2,0,0,0-2,2v2H45V59a2,2,0,0,0-2-2H21Z" style="fill:#414042"></path><path d="M61,14a10.992,10.992,0,0,1-8.24,10.65h-.01L45,31l1.63-6.52A11,11,0,1,1,61,14Z" style="fill:#00665a"></path><path d="M50,3a11.07,11.07,0,0,0-2,.19,11,11,0,0,1,.76,21.46h-.01l-2.72,2.228L45,31l7.75-6.35h.01A11,11,0,0,0,50,3Z" style="fill:#005c51"></path><path d="M30,32h2a1,1,0,0,0,1-1V29H29v2A1,1,0,0,0,30,32Z" style="fill:#ab2300"></path><polygon points="30 32 29 42 33 42 32 32 30 32" style="fill:#d80027"></polygon><path d="M36,19V18a2,2,0,0,0-2-2H24v1a3,3,0,0,0,3,3h8A1,1,0,0,0,36,19Z" style="fill:#58595b"></path><path d="M31,26a4,4,0,0,0,4-4V20H27v2A4,4,0,0,0,31,26Z" style="fill:#ffa791"></path><polygon points="10 17 10 21 16 21 16 19.052 16 17 10 17" style="fill:#d80027"></polygon><polygon points="20 16 16 19.052 20 22 20 16" style="fill:#d80027"></polygon><path d="M29,25.445V29h4V25.445a3.881,3.881,0,0,1-4,0Z" style="fill:#ffa791"></path><path d="M31,26a3.955,3.955,0,0,1-2-.555v1a3.881,3.881,0,0,0,4,0v-1A3.955,3.955,0,0,1,31,26Z" style="fill:#ff9478"></path><circle cx="50" cy="14" r="3" style="fill:#ed1c24"></circle><path d="M33,47H31a1,1,0,0,0,0,2h2a1,1,0,0,0,0-2Z" style="fill:#231f20"></path><path d="M43,16a1.993,1.993,0,0,0,1.722-1h1.42a3.915,3.915,0,0,0,.425,1.019l-1.006,1.006a2,2,0,1,0,1.413,1.415l1.007-1.007A3.915,3.915,0,0,0,49,17.858v1.42a2,2,0,1,0,2,0v-1.42a3.915,3.915,0,0,0,1.019-.425l1.006,1.007a2,2,0,0,0,.509,1.923h0a2,2,0,1,0,.9-3.339l-1.006-1.006A3.915,3.915,0,0,0,53.858,15h1.42a2,2,0,1,0,0-2h-1.42a3.915,3.915,0,0,0-.425-1.019l1.006-1.006a2.015,2.015,0,0,0,.51.074A2.006,2.006,0,1,0,53.026,9.56l-1.007,1.007A3.915,3.915,0,0,0,51,10.142V8.722a2,2,0,1,0-2,0v1.42a3.915,3.915,0,0,0-1.019.425L46.975,9.56a2,2,0,0,0-.509-1.923h0a2,2,0,1,0-1.415,3.413,2.022,2.022,0,0,0,.511-.074l1.006,1.006A3.915,3.915,0,0,0,46.142,13h-1.42A2,2,0,1,0,43,16Zm7-4a2,2,0,1,1-2,2A2,2,0,0,1,50,12Z" style="fill:#231f20"></path><path d="M50,2A12.006,12.006,0,0,0,39.62,8H5a3.009,3.009,0,0,0-3,3V49a3.009,3.009,0,0,0,3,3H25v4H21a3.009,3.009,0,0,0-3,3v2a1,1,0,0,0,1,1H45a1,1,0,0,0,1-1V59a3.009,3.009,0,0,0-3-3H39V52H59a3.009,3.009,0,0,0,3-3V14A12.01,12.01,0,0,0,50,2ZM44.46,31.84a.984.984,0,0,0,1.17-.07l7.58-6.21A11.962,11.962,0,0,0,57,23.75V41H42V35a7.006,7.006,0,0,0-4.75-6.63A7.122,7.122,0,0,0,35,28H34V25.97A4.952,4.952,0,0,0,36,22V20.72A2,2,0,0,0,37,19V18a3.009,3.009,0,0,0-3-3H24a1,1,0,0,0-1,1v1a4,4,0,0,0,3,3.86V22a4.952,4.952,0,0,0,2,3.97V28H27a6.748,6.748,0,0,0-2.24.37c-.01,0-.02.01-.03.01A6.979,6.979,0,0,0,20,35v6H7V13H38.05c-.03.33-.05.66-.05,1a11.967,11.967,0,0,0,7.44,11.11l-1.41,5.65A.984.984,0,0,0,44.46,31.84ZM30,31V30h2v1Zm1.9,10H30.1l.8-8h.2ZM30,28V26.9a5.05,5.05,0,0,0,2,0V28Zm1-3a3.009,3.009,0,0,1-3-3V21h6v1A3.009,3.009,0,0,1,31,25Zm-4.73,5.05A5.706,5.706,0,0,1,27,30h1v1a1.974,1.974,0,0,0,.93,1.68l-.62,6.21ZM26.74,41H22V35a4.987,4.987,0,0,1,2.37-4.25ZM27,19a2.006,2.006,0,0,1-2-2h9a1,1,0,0,1,1,1v1Zm7,12V30h1a5.706,5.706,0,0,1,.73.05l-2.04,8.83-.62-6.2A1.974,1.974,0,0,0,34,31Zm3.63-.25A4.987,4.987,0,0,1,40,35v6H35.26ZM43,58a1,1,0,0,1,1,1v1H20V59a1,1,0,0,1,1-1ZM27,56V52H37v4Zm33-7a1,1,0,0,1-1,1H5a1,1,0,0,1-1-1V46H60Zm0-5H4V11a1,1,0,0,1,1-1H38.7c-.12.33-.22.66-.31,1H6a1,1,0,0,0-1,1V42a1,1,0,0,0,1,1H58a1,1,0,0,0,1-1V21.94a11.617,11.617,0,0,0,1-1.31ZM52.57,23.67a1.055,1.055,0,0,0-.19.05.869.869,0,0,0-.26.16L46.7,28.31l.9-3.59a.992.992,0,0,0-.66-1.19,10.006,10.006,0,1,1,5.63.14Z" style="fill:#231f20"></path><path d="M20.443,15.1a1,1,0,0,0-1.049.1L17,17.031V17a1,1,0,0,0-1-1H10a1,1,0,0,0-1,1v4a1,1,0,0,0,1,1h6a1,1,0,0,0,.994-.973l2.413,1.778A1,1,0,0,0,21,22V16A1,1,0,0,0,20.443,15.1ZM15,20H11V18h4Zm4,.021-1.333-.983L19,18.021Z" style="fill:#231f20"></path></g></svg>